<svg xmlns="http://www.w3.org/2000/svg" width="32" height="32" viewBox="0 0 32 32">
    <g fill="none" fill-rule="evenodd">
        <circle cx="16" cy="16" r="16" fill="#37C977"/>
        <path fill="#FFF" fill-rule="nonzero" d="M13.577 8c-2.336 0-3.685 1.814-3.685 4 0 .736.354 1.476.354 1.476-.142.081-.376.341-.317.8.11.855.482 1.07.72 1.09.09.798 1.165 1.94 1.466 2.089v1.213C11.445 20.668 7 19.636 7 24h13.154c0-4.364-4.445-3.332-5.116-5.332v-1.213c.302-.149 1.377-1.291 1.468-2.09.237-.018.609-.234.72-1.09.058-.46-.175-.718-.318-.8 0 0 .354-.667.354-1.475 0-1.619-.639-3-2.01-3 0 0-.25-1-1.675-1zm4.599 1.455c.347.7.548 1.559.548 2.546 0 .485-.084.925-.184 1.282.131.333.193.727.135 1.177-.12.937-.495 1.551-.955 1.918-.05.118-.115.235-.177.35h.419v2.183l2.92-2.182h2.926c1.21 0 2.192-.977 2.192-2.182v-2.91c0-1.206-.981-2.182-2.192-2.182h-5.632z"/>
    </g>
</svg>
