<svg xmlns="http://www.w3.org/2000/svg" width="32" height="32" viewBox="0 0 32 32">
    <g fill="none" fill-rule="evenodd">
        <circle cx="16" cy="16" r="16" fill="#2C79D3"/>
        <path fill="#FFF" fill-rule="nonzero" d="M10.364 9C9.61 9 9 9.61 9 10.364v9.545c0 .754.61 1.364 1.364 1.364V13.09c0-1.504 1.223-2.727 2.727-2.727h6.818C19.91 9.61 19.3 9 18.545 9h-8.181zm2.727 2.727c-.753 0-1.364.61-1.364 1.364v9.545c0 .754.61 1.364 1.364 1.364h8.182c.753 0 1.363-.61 1.363-1.364v-9.545c0-.753-.61-1.364-1.363-1.364H13.09zm1.364 2.728h5.454c.376 0 .682.305.682.681 0 .377-.306.682-.682.682h-5.454c-.377 0-.682-.305-.682-.682 0-.376.305-.681.682-.681zm0 2.727h5.454c.376 0 .682.305.682.682 0 .376-.306.681-.682.681h-5.454c-.377 0-.682-.305-.682-.681 0-.377.305-.682.682-.682zm0 2.727h5.454c.376 0 .682.306.682.682 0 .376-.306.682-.682.682h-5.454c-.377 0-.682-.306-.682-.682 0-.376.305-.682.682-.682z"/>
    </g>
</svg>
