<svg xmlns="http://www.w3.org/2000/svg" width="32" height="32" viewBox="0 0 32 32">
    <g fill="none" fill-rule="evenodd">
        <circle cx="16" cy="16" r="16" fill="#FFD056"/>
        <path fill="#FFF" fill-rule="nonzero" d="M10.667 9c-.368 0-.667.3-.667.667v8.666h1.333v-1.572h7.251V15.51h-7.25v-1.574H16v-1.287h-4.667v-2.316H22v11.334c0 1.112-.888 2-2 2s-2-.888-2-2v-1.334c0-.367-.3-.666-.667-.666H8.667c-.368 0-.667.3-.667.666v1.334C8 23.5 9.5 25 11.333 25H20c.023 0 .044-.003.068-.003 1.802-.036 3.265-1.52 3.265-3.33v-12c0-.368-.3-.667-.666-.667h-12z"/>
    </g>
</svg>
