<svg xmlns="http://www.w3.org/2000/svg" width="32" height="32" viewBox="0 0 32 32">
    <g fill="none" fill-rule="evenodd">
        <circle cx="16" cy="16" r="16" fill="#A253FF"/>
        <path fill="#FFF" fill-rule="nonzero" d="M16 6c-1.325 0-2.4 1.075-2.4 2.4s1.075 2.4 2.4 2.4 2.4-1.075 2.4-2.4S17.325 6 16 6zm-7.2 6.4c-.289-.004-.557.148-.702.397-.146.249-.146.557 0 .806.145.25.413.401.702.397l4.8.3v10.873c0 .456.37.827.827.827.435 0 .796-.337.825-.772l.35-5.256c.014-.209.188-.372.398-.372l.8-.008 1.51 1.249-1.862 1.24-.006.003c-.395.198-.555.679-.358 1.074.198.395.679.555 1.074.358l3.2-1.6c.215-.108.37-.307.423-.542.052-.234-.004-.48-.153-.67L18.4 17.39V14.3l4.8-.3c.289.004.557-.148.702-.397.146-.249.146-.557 0-.806-.145-.25-.413-.401-.702-.397H8.8z"/>
    </g>
</svg>
