<?xml version="1.0" encoding="UTF-8"?>
<svg width="48px" height="48px" viewBox="0 0 48 48" version="1.1" xmlns="http://www.w3.org/2000/svg" xmlns:xlink="http://www.w3.org/1999/xlink">
    <!-- Generator: Sketch 64 (93537) - https://sketch.com -->
    <title>Icons/48px/Movement/Category/Electricity@3x</title>
    <desc>Created with Sketch.</desc>
    <defs>
        <circle id="path-1" cx="24" cy="24" r="24"></circle>
    </defs>
    <g id="Icons/48px/Movement/Category/Electricity" stroke="none" stroke-width="1" fill="none" fill-rule="evenodd">
        <g id="Oval">
            <use fill="#FFFFFF" xlink:href="#path-1"></use>
            <use fill-opacity="0.08" fill="#37C977" xlink:href="#path-1"></use>
        </g>
        <g id="Icons/32px/More/Services/Electricity" transform="translate(8.000000, 8.000000)" fill="#37C977" fill-rule="nonzero">
            <path d="M17.0903203,4 C16.7189829,4 16.3836871,4.2221615 16.2393587,4.56430298 L9.92565676,16.3281253 C9.84182571,16.4270614 9.77978098,16.5425504 9.74356544,16.6670672 L9.73815676,16.676082 L9.73995971,16.6778847 C9.71758323,16.7577065 9.70606135,16.8401789 9.70570488,16.923077 C9.70570488,17.4328783 10.1189805,17.846154 10.6287818,17.846154 L15.7057049,17.846154 L14.3391181,26.8930287 C14.3269731,26.9535696 14.3209333,27.0151763 14.3210895,27.0769232 C14.3210895,27.5867245 14.7343651,28 15.2441664,28 C15.5859773,27.9994692 15.8995137,27.8100987 16.0590698,27.5078127 L16.0608735,27.5078127 L16.0662818,27.4951924 L22.4502966,15.6213946 C22.5660396,15.4634314 22.6285471,15.2727516 22.6287818,15.0769232 C22.6287818,14.5671219 22.2155062,14.1538463 21.7057049,14.1538463 L16.6287818,14.1538463 L17.9917621,5.11959144 C18.005988,5.05505004 18.0132413,4.98916747 18.0133972,4.92307704 C18.0133972,4.41327573 17.6001216,4 17.0903203,4 Z M6.92745971,5.83713956 C6.5518384,5.83723821 6.2137283,6.06491381 6.07238492,6.41292735 C5.93104153,6.76094089 6.01465023,7.15989478 6.28382993,7.42187507 L8.12998378,9.26802892 C8.361508,9.50916884 8.70530576,9.60630451 9.02878738,9.52197441 C9.35226901,9.4376443 9.60488753,9.18502578 9.68921764,8.86154415 C9.77354774,8.53806253 9.67641207,8.19426477 9.43527215,7.96274055 L7.5891183,6.1165867 C7.41532962,5.93794109 7.17669205,5.83713956 6.92745971,5.83713956 Z M25.379984,5.83713956 C25.1401698,5.84428523 24.9125577,5.94451215 24.7453686,6.1165867 L22.8992147,7.96274055 C22.6580721,8.19426412 22.5609343,8.53806318 22.6452639,8.86154649 C22.7295936,9.18502981 22.9822134,9.43764966 23.3056967,9.52197945 C23.62918,9.60630923 23.9729791,9.50917152 24.2045027,9.26802892 L26.0506566,7.42187507 C26.3236662,7.15649843 26.4057539,6.75073732 26.2573654,6.40010951 C26.108977,6.04948171 25.7605533,5.82591642 25.379984,5.83713956 Z M8.76459916,22.4525238 C8.52478497,22.4596696 8.29717286,22.5598967 8.12998378,22.7319715 L6.28382993,24.5781253 C6.04268733,24.809649 5.94554961,25.1534481 6.0298794,25.4769314 C6.11420918,25.8004147 6.36682904,26.0530344 6.69031235,26.1373641 C7.01379567,26.2216938 7.35759473,26.124556 7.5891183,25.8834133 L9.43527215,24.0372595 C9.70828193,23.7718828 9.79036973,23.3661215 9.64198115,23.0154936 C9.49359257,22.6648657 9.14516867,22.4413004 8.76459916,22.4525238 Z M23.542844,22.4525238 C23.1672227,22.4526226 22.8291127,22.6802983 22.6877694,23.0283119 C22.5464261,23.3763255 22.630035,23.7752793 22.8992147,24.0372595 L24.7453686,25.8834133 C24.9768916,26.1245587 25.320692,26.2216985 25.6441769,26.1373692 C25.9676619,26.0530398 26.220283,25.8004187 26.3046124,25.4769337 C26.3889418,25.1534487 26.2918019,24.8096483 26.0506566,24.5781253 L24.2045027,22.7319715 C24.0307141,22.5533256 23.7920764,22.4525238 23.542844,22.4525238 Z" id="Shape"></path>
        </g>
    </g>
</svg>