<?xml version="1.0" encoding="UTF-8"?>
<svg width="48px" height="48px" viewBox="0 0 48 48" version="1.1" xmlns="http://www.w3.org/2000/svg" xmlns:xlink="http://www.w3.org/1999/xlink">
    <!-- Generator: Sketch 64 (93537) - https://sketch.com -->
    <title>Icons/48px/Movement/Category/GiftCard@3x</title>
    <desc>Created with Sketch.</desc>
    <defs>
        <circle id="path-1" cx="24" cy="24" r="24"></circle>
    </defs>
    <g id="Icons/48px/Movement/Category/GiftCard" stroke="none" stroke-width="1" fill="none" fill-rule="evenodd">
        <g id="Oval">
            <use fill="#FFFFFF" xlink:href="#path-1"></use>
            <use fill-opacity="0.08" fill="#37C977" xlink:href="#path-1"></use>
        </g>
        <g id="Icons/32px/More/Services/GiftCard" transform="translate(8.000000, 8.000000)" fill="#37C977" fill-rule="nonzero">
            <path d="M14.4166667,5.90625 C13.1143987,5.90625 12.0416667,7.00043689 12.0416667,8.32875 C12.0416667,8.61286282 12.1002025,8.88197511 12.1901042,9.13625 L8.08333333,9.13625 C7.20854167,9.13625 6.5,9.8589625 6.5,10.75125 L6.5,12.36625 L25.5,12.36625 L25.5,10.75125 C25.5,9.8589625 24.7914583,9.13625 23.9166667,9.13625 L19.8098958,9.13625 C19.8997975,8.88197511 19.9583333,8.61286282 19.9583333,8.32875 C19.9583333,7.00043689 18.8856013,5.90625 17.5833333,5.90625 C16.974871,5.90625 16.4222378,6.15183086 16,6.54184084 C15.5777622,6.15183086 15.025129,5.90625 14.4166667,5.90625 Z M14.4166667,7.52125 C14.8639821,7.52125 15.2083333,7.87248811 15.2083333,8.32875 L15.2083333,9.13625 L14.4166667,9.13625 C13.9693513,9.13625 13.625,8.78501189 13.625,8.32875 C13.625,7.87248811 13.9693513,7.52125 14.4166667,7.52125 Z M17.5833333,7.52125 C18.0306487,7.52125 18.375,7.87248811 18.375,8.32875 C18.375,8.78501189 18.0306487,9.13625 17.5833333,9.13625 L16.7916667,9.13625 L16.7916667,8.32875 C16.7916667,7.87248811 17.1360179,7.52125 17.5833333,7.52125 Z M7.29166667,13.98125 L7.29166667,24.47875 C7.29166667,25.3710375 8.00020833,26.09375 8.875,26.09375 L15.2083333,26.09375 L15.2083333,13.98125 L7.29166667,13.98125 Z M16.7916667,13.98125 L16.7916667,26.09375 L23.125,26.09375 C23.9997917,26.09375 24.7083333,25.3710375 24.7083333,24.47875 L24.7083333,13.98125 L16.7916667,13.98125 Z" id="Shape"></path>
        </g>
    </g>
</svg>