<?xml version="1.0" encoding="UTF-8"?>
<svg width="48px" height="48px" viewBox="0 0 48 48" version="1.1" xmlns="http://www.w3.org/2000/svg" xmlns:xlink="http://www.w3.org/1999/xlink">
    <!-- Generator: Sketch 64 (93537) - https://sketch.com -->
    <title>Icons/48px/Movement/Category/Internet@3x</title>
    <desc>Created with Sketch.</desc>
    <defs>
        <circle id="path-1" cx="24" cy="24" r="24"></circle>
    </defs>
    <g id="Icons/48px/Movement/Category/Internet" stroke="none" stroke-width="1" fill="none" fill-rule="evenodd">
        <g id="Oval">
            <use fill="#FFFFFF" xlink:href="#path-1"></use>
            <use fill-opacity="0.08" fill="#37C977" xlink:href="#path-1"></use>
        </g>
        <g id="Icons/32px/More/Services/Internet" transform="translate(8.000000, 8.000000)" fill="#37C977" fill-rule="nonzero">
            <path d="M16.5,7 C11.5293,7 7.02877971,9.01457971 3.77167969,12.2716798 L6.95859375,15.4585942 C9.40299375,13.0141942 12.7776,11.5 16.5,11.5 C20.2224,11.5 23.5970067,13.0141933 26.0414058,15.4585942 L29.2283202,12.2716798 C25.9712202,9.01457971 21.4707,7 16.5,7 Z M16.5,13.3 C13.2744,13.3 10.34985,14.61265 8.23125,16.73125 L11.4111328,19.9111327 C12.7143327,18.6070327 14.5146,17.8 16.5,17.8 C18.4854,17.8 20.2856673,18.6070327 21.5888673,19.9111327 L24.76875,16.73125 C22.65015,14.61265 19.7256,13.3 16.5,13.3 Z M16.5,19.6 C15.0114,19.6 13.6620894,20.2063894 12.6837894,21.1837894 L16.5,25 L20.3162106,21.1837894 C19.3379106,20.2063894 17.9886,19.6 16.5,19.6 Z" id="Shape"></path>
        </g>
    </g>
</svg>