<?xml version="1.0" encoding="UTF-8"?>
<svg width="48px" height="48px" viewBox="0 0 48 48" version="1.1" xmlns="http://www.w3.org/2000/svg" xmlns:xlink="http://www.w3.org/1999/xlink">
    <!-- Generator: Sketch 64 (93537) - https://sketch.com -->
    <title>Icons/48px/Movement/Category/Transport@3x</title>
    <desc>Created with Sketch.</desc>
    <defs>
        <circle id="path-1" cx="24" cy="24" r="24"></circle>
    </defs>
    <g id="Icons/48px/Movement/Category/Transport" stroke="none" stroke-width="1" fill="none" fill-rule="evenodd">
        <g id="Oval">
            <use fill="#FFFFFF" xlink:href="#path-1"></use>
            <use fill-opacity="0.08" fill="#37C977" xlink:href="#path-1"></use>
        </g>
        <g id="Icons/32px/More/Services/Transport" transform="translate(8.000000, 8.000000)" fill="#37C977" fill-rule="nonzero">
            <path d="M14.253125,9 C14.2065233,9.00134116 14.1601054,9.00628198 14.1143231,9.01481897 C12.9664006,9.01860743 11.9816272,9.05836878 11.2553385,9.10510685 C11.2547743,9.10510631 11.2542101,9.10510631 11.2536458,9.10510685 C10.1138877,9.17894543 9.08882733,9.79759718 8.50807296,10.7467043 L6.4328125,14.1431696 L4.35247398,14.5995339 C3.56207395,14.7726765 3,15.4536235 3,16.2394891 L3,19.4619454 C3,20.2352034 3.54468646,20.9095845 4.31861981,21.0953345 L5.82682296,21.4548449 C6.27907987,22.531579 7.36793734,23.3 8.63333333,23.3 C9.83206498,23.3 10.8673403,22.6068464 11.3585937,21.6190042 L21.5080731,21.6190042 C21.9993267,22.6068464 23.0346016,23.3 24.2333333,23.3 C25.521161,23.3 26.6231901,22.5026171 27.0601565,21.395747 L27.8066407,21.1577154 C28.5190407,20.9316215 29,20.286631 29,19.5604408 L29,16.656455 C29,15.868068 28.4363148,15.1837977 27.6424481,15.0148576 C26.5909527,14.7907523 25.0560799,14.4994273 23.5274741,14.2531564 L20.8902343,10.5743366 C20.2866642,9.73269276 19.3171303,9.1996758 18.2580731,9.1379388 C17.2850058,9.08146507 15.8657438,9.01949062 14.4240889,9.01481897 C14.3677453,9.00442061 14.3104766,8.99947156 14.253125,9 Z M13.9653646,10.6809958 L13.9653646,14.028213 L9.06666667,14.028213 L10.5647136,11.577308 C10.8591401,11.0970676 11.3624824,10.794023 11.9341146,10.7565093 C12.4670332,10.7222146 13.1805321,10.695935 13.9653646,10.6809958 Z M15.1333333,10.6809958 C16.2685887,10.6999474 17.3671675,10.7420851 18.153125,10.7876997 C18.6800679,10.8184174 19.1637034,11.0826127 19.4666667,11.5050777 C19.4666661,11.5056249 19.4666661,11.5061721 19.4666667,11.5067193 L21.2744796,14.0265714 L15.1333333,14.0265714 L15.1333333,10.6809958 Z M8.63333333,19.0859747 C9.36156889,19.0859747 9.93333333,19.6404747 9.93333333,20.3467216 C9.93333333,21.0529684 9.36156889,21.6074684 8.63333333,21.6074684 C7.90509777,21.6074684 7.33333333,21.0529684 7.33333333,20.3467216 C7.33333333,19.6404747 7.90509777,19.0859747 8.63333333,19.0859747 Z M24.2333333,19.0859747 C24.9615691,19.0859747 25.5333333,19.6404747 25.5333333,20.3467216 C25.5333333,21.0529684 24.9615691,21.6074684 24.2333333,21.6074684 C23.5050976,21.6074684 22.9333333,21.0529684 22.9333333,20.3467216 C22.9333333,19.6404747 23.5050976,19.0859747 24.2333333,19.0859747 Z" id="Shape"></path>
        </g>
    </g>
</svg>